<svg width="346" height="107" viewBox="0 0 346 107" fill="none" xmlns="http://www.w3.org/2000/svg">
<path d="M11.1952 49.9575C11.1952 46.1153 12.7283 39.5193 15.785 30.1789C15.9364 28.9486 16.05 27.69 16.1162 26.403C11.7157 27.2641 7.8357 28.8918 4.43832 31.305C4.32476 31.3997 4.06925 31.4754 3.69071 31.4754C3.35949 31.3713 3.20808 31.1441 3.20808 30.8413C3.20808 30.5763 3.35949 30.3398 3.69071 30.141C7.53287 27.8887 11.6684 26.3651 16.1446 25.5702C16.1824 24.6712 16.2203 23.7816 16.2203 22.8826C16.2203 18.6051 15.5484 15.0279 14.2046 12.1132C12.3403 8.63063 9.32146 6.90828 5.17647 6.90828C3.94622 6.90828 2.56456 7.07862 1.10719 7.40038C0.766511 7.40038 0.548852 7.23004 0.473145 6.87043C0.473145 6.53921 0.62456 6.34048 0.95578 6.27423C1.06934 6.27423 1.14505 6.23638 1.22076 6.20799C8.60224 4.75062 16.4758 3.65286 24.832 2.89578L25.097 2.063C25.2863 1.42895 25.4282 1.03149 25.5796 0.804365C25.7311 0.567779 26.0244 0.473145 26.4787 0.473145C27.1127 0.539389 27.4534 0.842219 27.4534 1.40056C27.4534 1.70339 27.3777 1.93051 27.2641 2.1671C27.1506 2.40369 27.037 2.60242 26.9992 2.73491C30.8792 2.43208 34.8727 2.30905 39.0083 2.30905C45.3488 2.30905 51.6514 2.67813 57.9162 3.4352C58.219 3.4352 58.361 3.56769 58.361 3.83266C58.361 4.13549 58.2096 4.26798 57.8783 4.26798C52.2476 3.60554 46.579 3.27432 40.9483 3.27432C36.1408 3.27432 31.3618 3.47305 26.5544 3.90837C24.6522 8.45082 21.9646 15.5389 18.5388 25.1822C23.0529 24.6144 28.1632 24.321 33.9453 24.321C34.1724 24.321 34.2765 24.4251 34.2765 24.6238C34.2765 24.8888 34.163 25.0213 33.9453 25.0213C28.1632 25.0213 22.9393 25.3525 18.2455 26.015C17.6114 27.8698 16.9774 29.7909 16.3433 31.8444C15.3686 38.4688 14.0342 44.6012 12.274 50.2035C12.1983 50.4401 12.0091 50.5347 11.7157 50.5347C11.4507 50.5347 11.2709 50.336 11.1952 49.9669V49.9575ZM17.2707 25.3714C19.1729 19.542 20.8479 14.5737 22.3053 10.4287C23.2422 7.77892 23.9425 5.65911 24.4724 4.06925C18.501 4.63706 13.0217 5.32789 8.02497 6.18906C10.7126 6.49189 12.8702 8.14799 14.5547 11.0911C16.1919 14.0437 17.0152 17.9143 17.0152 22.6554C17.0152 23.6207 16.9774 24.5481 16.9017 25.4377L17.2707 25.3714ZM14.6588 37.2291C13.58 40.9104 12.9081 43.8914 12.6431 46.1721C13.5043 43.2195 14.1762 40.2385 14.6588 37.2291ZM16.9395 26.6585L17.0152 26.2326L16.8638 26.261L16.826 27.1222L16.9395 26.6585Z" fill="#FFFEF4" stroke="#FFFEF4" stroke-width="0.946344" stroke-miterlimit="10"/>
<path d="M26.5637 36.1599C26.2608 36.0936 25.9391 35.999 25.5984 35.8759C25.2577 35.7529 24.9454 35.611 24.6615 35.4406C24.3682 35.2703 24.141 35.0526 23.9707 34.7782C23.8004 34.5038 23.753 34.1631 23.8193 33.7561C23.8571 33.3492 24.0275 33.0369 24.3587 32.8193C24.6805 32.6016 25.0306 32.488 25.3997 32.488C25.7687 32.488 26.0905 32.5921 26.3649 32.7909C26.6394 32.9991 26.7529 33.3019 26.7246 33.7088C26.6867 33.9454 26.5637 34.182 26.346 34.4186C26.1284 34.6552 25.9296 34.8444 25.7593 34.9769C25.8918 35.0148 26.0905 35.0242 26.346 35.0242C26.6015 35.0242 26.8381 35.0432 27.0558 35.0716C27.2734 35.1094 27.4816 35.1662 27.6709 35.2514C27.8602 35.3365 27.9359 35.4785 27.898 35.6867C27.8318 36.1599 27.6236 36.6519 27.2829 37.163C26.9422 37.674 26.7435 38.2134 26.6678 38.7907C26.6015 39.368 26.7624 39.737 27.1504 39.8884C27.5384 40.0399 27.9737 40.1156 28.4469 40.1156C29.2986 40.1156 30.2828 39.9452 31.4279 39.6045C32.5635 39.2639 33.6991 38.838 34.8347 38.3364C35.9703 37.8349 37.087 37.2765 38.1942 36.6803C39.3015 36.0841 40.2194 35.5542 40.967 35.081C41.1374 35.081 41.2225 35.1473 41.2225 35.2892C41.2225 35.3555 41.1847 35.4122 41.0995 35.469C41.0143 35.5163 40.9386 35.5637 40.8724 35.592C40.0869 36.1031 39.1027 36.6803 37.9198 37.3239C36.7274 37.9674 35.4782 38.573 34.1534 39.1314C32.8285 39.6897 31.5604 40.1629 30.3396 40.5603C29.1188 40.9483 28.0684 41.1471 27.1883 41.1471C26.5731 41.1471 26.0243 41.0241 25.5322 40.7685C25.0401 40.513 24.8413 40.0493 24.9454 39.368C25.0117 38.7907 25.2104 38.2323 25.5322 37.6929C25.8539 37.1535 26.2041 36.6425 26.5731 36.1693L26.5637 36.1599ZM26.2135 33.5669C26.2514 33.3965 26.1851 33.264 26.0337 33.1599C25.8823 33.0558 25.7214 33.0085 25.5511 33.0085C25.3524 33.0085 25.1536 33.0842 24.9644 33.2356C24.7751 33.3871 24.6805 33.5669 24.6805 33.7656C24.6426 33.9738 24.6805 34.1536 24.7845 34.3239C24.8886 34.4943 25.0022 34.6268 25.1442 34.7309C25.3524 34.6268 25.57 34.4659 25.8066 34.2482C26.0432 34.0306 26.1757 33.8035 26.2135 33.5574V33.5669Z" fill="#FFFEF4" stroke="#FFFEF4" stroke-width="0.946344" stroke-miterlimit="10"/>
<path d="M49.9858 35.2985C49.8155 35.2985 49.3234 35.5824 48.5095 36.1407C47.6957 36.6991 46.7493 37.3237 45.6894 37.9956C44.6201 38.6769 43.5128 39.2921 42.3772 39.8504C41.2416 40.4087 40.2669 40.6926 39.453 40.6926C38.942 40.6926 38.5729 40.5412 38.3363 40.2384C38.0997 39.9356 38.0146 39.5476 38.0808 39.0649C38.1849 38.2889 38.554 37.4845 39.1975 36.6707C39.841 35.8568 40.6076 35.1092 41.4877 34.4278C42.3678 33.7465 43.2952 33.1976 44.2604 32.7717C45.2257 32.3459 46.0869 32.1377 46.8345 32.1377C47.4496 32.1377 47.9985 32.2796 48.4906 32.573C48.9827 32.8664 49.1814 33.3774 49.0773 34.125C49.0395 34.4657 48.8881 34.636 48.6231 34.636C48.3581 34.636 48.2256 34.5319 48.2446 34.3332C48.2635 34.125 48.2824 33.9074 48.2919 33.6708C48.3108 33.4342 48.254 33.2165 48.1121 33.0083C47.9796 32.8001 47.62 32.7055 47.0427 32.7055C46.4654 32.7055 45.7557 32.9232 44.904 33.3679C44.0522 33.8127 43.2195 34.3521 42.4056 34.9957C41.5918 35.6392 40.882 36.33 40.2953 37.0587C39.6991 37.7874 39.3678 38.4403 39.3016 39.0176C39.1975 39.6611 39.453 39.9829 40.0681 39.9829C40.8158 39.9829 41.7337 39.6895 42.8125 39.0933C43.9008 38.4971 44.9702 37.8536 46.0206 37.1628C47.0711 36.4719 48.0364 35.819 48.9259 35.2322C49.806 34.636 50.4495 34.3427 50.8565 34.3427C51.1593 34.3427 51.358 34.4657 51.4432 34.7023C51.5284 34.9389 51.5568 35.1755 51.5189 35.412C51.4527 35.7527 51.3864 36.0839 51.3107 36.4057C51.2445 36.7275 51.1877 37.0587 51.1593 37.3994C51.0268 38.3173 51.112 38.9987 51.4148 39.4624C51.7176 39.9166 52.3611 40.1532 53.3453 40.1532C54.0551 40.1532 54.869 40.0302 55.7869 39.7747C56.7049 39.5192 57.6512 39.2069 58.6354 38.8283C59.6196 38.4593 60.5849 38.0429 61.5407 37.5792C62.487 37.1249 63.3482 36.7085 64.1147 36.33C64.8813 35.9609 65.5059 35.6392 65.998 35.3837C66.4901 35.1281 66.755 35.0051 66.7834 35.0051C66.9159 35.0051 66.9727 35.0903 66.9348 35.2606C66.9348 35.3269 66.8307 35.4499 66.632 35.6202C65.8465 36.1313 64.8623 36.6896 63.6794 37.3047C62.487 37.9199 61.2379 38.4782 59.913 38.9798C58.5881 39.4908 57.3105 39.9261 56.0708 40.2762C54.8311 40.6359 53.7712 40.8062 52.8911 40.8062C51.9448 40.8062 51.1688 40.5885 50.5726 40.1438C49.9764 39.699 49.7303 38.9703 49.8344 37.9577C49.9007 37.5886 49.9764 37.229 50.0615 36.8883C50.1467 36.5477 50.2224 36.1975 50.2887 35.819C50.2887 35.7527 50.2697 35.6486 50.2413 35.5161C50.2035 35.3837 50.1183 35.3174 49.9858 35.3174V35.2985Z" fill="#FFFEF4" stroke="#FFFEF4" stroke-width="0.946344" stroke-miterlimit="10"/>
<path d="M65.0991 40.7968C64.6922 40.7968 64.4556 40.6454 64.3894 40.3426C64.3231 40.0398 64.3042 39.718 64.342 39.3773C64.3799 39.1786 64.4651 38.8379 64.6259 38.3553C64.7774 37.8821 64.9856 37.39 65.2411 36.879C65.4966 36.368 65.7521 35.9232 66.0076 35.5257C66.2631 35.1377 66.4902 34.939 66.6984 34.939C67.0013 34.939 67.1432 35.0715 67.1054 35.3459C67.1054 35.4122 67.0013 35.6109 66.8025 35.9326C66.5943 36.2544 66.3862 36.6235 66.1685 37.0304C65.9508 37.4373 65.7332 37.8632 65.5344 38.2985C65.3262 38.7433 65.2127 39.1313 65.1748 39.472C65.137 39.5761 65.137 39.6991 65.1464 39.8505C65.1654 40.0019 65.26 40.0776 65.4303 40.0776C65.6007 40.0776 65.9319 39.8978 66.424 39.5382C66.9161 39.1786 67.4934 38.7433 68.1558 38.2133C68.8183 37.6834 69.528 37.1156 70.2945 36.5099C71.0611 35.8948 71.8087 35.327 72.5563 34.8065C73.3039 34.2765 74.0137 33.8412 74.695 33.4816C75.3764 33.122 75.9537 32.9517 76.4269 32.9517C76.9 32.9517 77.2029 33.1125 77.3164 33.4343C77.4394 33.7561 77.4773 34.1251 77.4394 34.5321C77.3353 35.3175 77.0798 36.0746 76.6729 36.8222C76.266 37.5698 76.0294 38.3364 75.9631 39.1124C75.859 39.8978 76.1808 40.2858 76.9284 40.2858C77.6098 40.2858 78.3858 40.1628 79.2659 39.9073C80.146 39.6518 81.0545 39.33 81.9914 38.942C82.9282 38.554 83.8367 38.1471 84.7168 37.7212C85.5969 37.2954 86.3445 36.9358 86.9597 36.6235C87.0259 36.5572 87.2152 36.4437 87.518 36.2923C87.8208 36.1408 88.1331 35.98 88.4549 35.8096C88.7766 35.6393 89.0795 35.4784 89.3728 35.327C89.6567 35.1756 89.8176 35.0999 89.8555 35.0999C90.0258 35.0336 90.0921 35.0809 90.0542 35.2513C90.0163 35.3175 89.969 35.3743 89.9028 35.4311C89.8365 35.4784 89.7703 35.5446 89.6946 35.6109C88.9848 36.0841 88.0574 36.6329 86.9218 37.2386C85.7862 37.8537 84.5938 38.4215 83.3541 38.942C82.1144 39.472 80.9031 39.9167 79.7107 40.2953C78.5183 40.6644 77.5341 40.8536 76.7581 40.8536C76.1146 40.8536 75.613 40.7022 75.2534 40.3994C74.8938 40.0966 74.7518 39.6045 74.8181 38.9231C74.9222 38.2417 75.1209 37.5982 75.4332 36.9925C75.7455 36.3869 75.9442 35.7339 76.0483 35.062C76.0483 34.8633 76.0294 34.6267 76.001 34.3712C75.9631 34.1157 75.8117 33.9926 75.5468 33.9926C75.2439 33.9926 74.7991 34.163 74.2219 34.5037C73.6446 34.8443 73.0011 35.2702 72.2913 35.7718C71.5816 36.2828 70.8434 36.8222 70.0769 37.3995C69.3103 37.9767 68.6006 38.5162 67.9381 39.0272C67.2757 39.5382 66.6795 39.9641 66.159 40.2953C65.6291 40.636 65.2884 40.8063 65.118 40.8063L65.0991 40.7968Z" fill="#FFFEF4" stroke="#FFFEF4" stroke-width="0.946344" stroke-miterlimit="10"/>
<path d="M87.0349 38.3552C87.139 37.5414 87.5176 36.8127 88.18 36.1692C88.8425 35.5257 89.6185 34.9768 90.5175 34.5131C91.4165 34.0588 92.3345 33.6992 93.2619 33.4437C94.1988 33.1882 95.0032 33.0652 95.6845 33.0652C95.9874 33.0652 96.3091 33.103 96.6498 33.1693C96.9905 33.2355 97.2933 33.3491 97.5677 33.5005C97.8422 33.6519 98.0504 33.8506 98.2018 34.0872C98.3532 34.3238 98.41 34.6267 98.3816 35.0052C98.3437 35.2796 98.1734 35.6203 97.8422 36.0462C97.5204 36.472 97.1892 36.6802 96.8485 36.6802C96.5457 36.6802 96.4037 36.5288 96.4416 36.226C96.4795 35.9894 96.6498 35.8096 96.9526 35.6866C97.2555 35.5635 97.4447 35.3364 97.511 34.9957C97.5488 34.5509 97.3122 34.267 96.8201 34.1346C96.328 34.0021 95.9306 33.9358 95.6277 33.9358C95.0883 33.9358 94.4164 34.0494 93.6215 34.267C92.8266 34.4847 92.0411 34.797 91.284 35.185C90.5175 35.573 89.8456 36.0462 89.2778 36.614C88.7005 37.1723 88.3598 37.7969 88.2557 38.4688C88.1895 39.0082 88.2747 39.4625 88.5112 39.8221C88.7478 40.1817 89.0507 40.4751 89.4292 40.7116C89.7983 40.9482 90.2052 41.1186 90.65 41.2227C91.0948 41.3268 91.5112 41.3741 91.9181 41.3741C93.4417 41.3741 94.9842 41.2037 96.5457 40.8631C98.1072 40.5224 99.6497 40.0681 101.173 39.4909C102.697 38.9136 104.192 38.2511 105.65 37.5035C107.107 36.7559 108.498 35.9799 109.823 35.1661C109.927 35.0998 110.041 35.062 110.183 35.062C110.324 35.062 110.372 35.1282 110.334 35.2702C110.334 35.3743 110.23 35.4689 110.031 35.573C108.706 36.3869 107.296 37.1818 105.81 37.9672C104.315 38.7527 102.782 39.4435 101.202 40.0587C99.6213 40.6738 98.0315 41.1659 96.4132 41.535C94.8044 41.904 93.2524 42.0933 91.7572 42.0933C91.2178 42.0933 90.65 42.0365 90.0538 41.9135C89.4576 41.7905 88.9276 41.6012 88.4545 41.3268C87.9813 41.0523 87.6027 40.6738 87.3378 40.1817C87.0633 39.6896 86.9687 39.0839 87.0349 38.3742V38.3552Z" fill="#FFFEF4" stroke="#FFFEF4" stroke-width="0.946344" stroke-miterlimit="10"/>
<path d="M107.449 38.7621C107.581 37.7779 108.026 36.8789 108.774 36.065C109.521 35.2512 110.392 34.5509 111.395 33.9736C112.398 33.3963 113.458 32.9515 114.575 32.6203C115.691 32.2986 116.676 32.1377 117.527 32.1377C117.726 32.1377 117.972 32.1566 118.237 32.185C118.512 32.2229 118.767 32.2796 119.004 32.3648C119.24 32.45 119.439 32.573 119.59 32.7434C119.742 32.9137 119.789 33.1503 119.713 33.4531C119.676 33.9641 119.411 34.3995 118.9 34.778C118.388 35.1471 117.802 35.4594 117.139 35.6959C116.477 35.9325 115.814 36.1123 115.152 36.2354C114.49 36.3584 113.96 36.4152 113.553 36.4152C113.042 36.4152 112.521 36.3395 112.001 36.188C111.471 36.0366 111.158 35.6865 111.054 35.1471C110.818 35.3553 110.543 35.5824 110.24 35.8379C109.938 36.0934 109.644 36.3773 109.379 36.6801C109.105 36.983 108.878 37.3047 108.688 37.6454C108.499 37.9861 108.395 38.3268 108.357 38.6675C108.291 39.0365 108.357 39.3488 108.537 39.5854C108.726 39.822 108.953 40.0018 109.228 40.1154C109.502 40.2384 109.796 40.3236 110.117 40.3709C110.439 40.4182 110.751 40.4466 111.054 40.4466C112.275 40.4466 113.581 40.3141 114.972 40.0397C116.363 39.7652 117.754 39.4245 119.146 38.9987C120.537 38.5728 121.909 38.0997 123.272 37.5697C124.625 37.0398 125.902 36.5287 127.085 36.0177C127.189 35.9798 127.35 35.9136 127.568 35.819C127.786 35.7149 128.013 35.6108 128.259 35.5161C128.495 35.412 128.713 35.3174 128.921 35.2322C129.129 35.1471 129.243 35.1092 129.281 35.1092C129.385 35.1092 129.432 35.1565 129.432 35.2606C129.394 35.431 129.111 35.6676 128.571 35.9704C128.032 36.2732 127.341 36.595 126.508 36.9357C125.675 37.2763 124.748 37.617 123.735 37.9577C122.713 38.2984 121.739 38.6107 120.811 38.9041C119.874 39.188 119.041 39.4435 118.294 39.6706C117.546 39.8882 117.035 40.0397 116.77 40.1059C115.786 40.3425 114.811 40.5412 113.846 40.6926C112.881 40.8441 111.906 40.9198 110.922 40.9198C110.581 40.9198 110.193 40.9008 109.748 40.8724C109.304 40.8441 108.916 40.7494 108.575 40.5885C108.234 40.4371 107.96 40.2195 107.733 39.9261C107.515 39.6422 107.42 39.2542 107.449 38.781V38.7621ZM118.852 33.5194C118.89 33.3869 118.833 33.2733 118.701 33.1881C118.568 33.103 118.407 33.0462 118.247 33.0083C118.076 32.9705 117.896 32.961 117.707 32.961H117.272C116.288 32.961 115.322 33.1408 114.367 33.491C113.42 33.8506 112.521 34.267 111.669 34.7401C111.698 35.2133 111.878 35.5351 112.199 35.7054C112.521 35.8758 112.871 35.9609 113.24 35.9609C113.515 35.9609 113.941 35.8947 114.537 35.7622C115.133 35.6297 115.739 35.4499 116.373 35.2228C116.997 35.0051 117.565 34.7401 118.057 34.4373C118.549 34.1345 118.814 33.8222 118.843 33.5194H118.852Z" fill="#FFFEF4" stroke="#FFFEF4" stroke-width="0.946344" stroke-miterlimit="10"/>
<path d="M125.929 42.5287C125.523 42.5287 125.068 42.4341 124.576 42.2448C124.084 42.0555 123.876 41.6959 123.942 41.147C124.008 40.778 124.292 40.4657 124.784 40.2291C125.276 39.9925 125.835 39.7843 126.469 39.614C127.093 39.4436 127.718 39.3111 128.324 39.207C128.939 39.1029 129.374 39.0178 129.649 38.9515C129.611 38.5825 129.544 38.1944 129.45 37.8064C129.346 37.4184 129.242 37.021 129.147 36.6141C129.043 36.2071 128.967 35.8002 128.92 35.3933C128.873 34.9863 128.863 34.6173 128.892 34.2766C128.92 34.0021 129.062 33.7277 129.298 33.4343C129.535 33.1504 129.809 32.999 130.112 32.999C130.283 32.999 130.453 33.0842 130.623 33.2545C130.794 33.4249 130.879 33.5952 130.879 33.7656C130.841 33.8318 130.803 33.917 130.756 34.0211C130.709 34.1252 130.633 34.1725 130.529 34.1725C130.396 34.1725 130.292 34.0873 130.226 33.917C130.16 33.7466 130.074 33.6331 129.97 33.5574C129.8 33.6236 129.696 33.7277 129.668 33.8602C129.63 34.163 129.649 34.5321 129.715 34.958C129.781 35.3838 129.866 35.8191 129.97 36.2544C130.074 36.6992 130.179 37.1345 130.302 37.5793C130.425 38.0241 130.481 38.4121 130.481 38.7528C132.175 38.308 133.841 37.8254 135.469 37.3049C137.096 36.7749 138.677 36.0746 140.2 35.1945C140.267 35.1662 140.342 35.1283 140.427 35.0904C140.513 35.0526 140.588 35.0431 140.655 35.0431C140.787 35.0431 140.844 35.1094 140.806 35.2513C140.806 35.3554 140.759 35.4311 140.683 35.4784C140.598 35.5258 140.522 35.5731 140.456 35.6015C138.998 36.4816 137.38 37.2197 135.592 37.8159C133.813 38.4121 132.109 38.9137 130.472 39.3206C130.406 39.86 130.226 40.3426 129.932 40.7496C129.639 41.1565 129.28 41.4877 128.835 41.7432C128.39 41.9987 127.917 42.188 127.406 42.33C126.895 42.4625 126.403 42.5287 125.929 42.5287ZM124.756 41.2511C124.756 41.4215 124.841 41.5256 125.012 41.554C125.182 41.5918 125.333 41.6013 125.466 41.6013C125.769 41.6013 126.157 41.5634 126.611 41.4972C127.065 41.4309 127.5 41.3079 127.907 41.1376C128.314 40.9672 128.674 40.759 128.977 40.5035C129.28 40.248 129.488 39.9168 129.592 39.5099C129.355 39.5761 128.986 39.6613 128.494 39.7654C128.002 39.8695 127.481 39.983 126.942 40.125C126.403 40.2575 125.911 40.4184 125.466 40.6076C125.021 40.7969 124.784 41.0051 124.756 41.2417V41.2511Z" fill="#FFFEF4" stroke="#FFFEF4" stroke-width="0.946344" stroke-miterlimit="10"/>
<path d="M137.74 38.3552C137.844 37.5414 138.222 36.8127 138.885 36.1692C139.547 35.5257 140.323 34.9768 141.222 34.5131C142.121 34.0588 143.039 33.6992 143.966 33.4437C144.903 33.1882 145.708 33.0652 146.389 33.0652C146.692 33.0652 147.014 33.103 147.354 33.1693C147.695 33.2355 147.998 33.3491 148.272 33.5005C148.547 33.6519 148.755 33.8506 148.906 34.0872C149.058 34.3238 149.115 34.6267 149.086 35.0052C149.048 35.2796 148.878 35.6203 148.547 36.0462C148.225 36.472 147.894 36.6802 147.553 36.6802C147.25 36.6802 147.108 36.5288 147.146 36.226C147.184 35.9894 147.345 35.8096 147.657 35.6866C147.96 35.5635 148.149 35.3364 148.216 34.9957C148.253 34.5509 148.017 34.267 147.525 34.1346C147.033 34.0021 146.635 33.9358 146.332 33.9358C145.793 33.9358 145.121 34.0494 144.326 34.267C143.531 34.4847 142.746 34.797 141.989 35.185C141.222 35.573 140.56 36.0462 139.982 36.614C139.405 37.1818 139.064 37.7969 138.96 38.4688C138.894 39.0082 138.979 39.4625 139.216 39.8221C139.452 40.1817 139.755 40.4751 140.134 40.7116C140.503 40.9482 140.91 41.1186 141.355 41.2227C141.799 41.3268 142.216 41.3741 142.623 41.3741C144.146 41.3741 145.689 41.2037 147.25 40.8631C148.812 40.5224 150.354 40.0681 151.878 39.4909C153.402 38.9136 154.897 38.2511 156.354 37.5035C157.811 36.7559 159.203 35.9799 160.527 35.1661C160.632 35.0998 160.745 35.062 160.887 35.062C161.029 35.062 161.076 35.1282 161.039 35.2702C161.039 35.3743 160.934 35.4689 160.736 35.573C159.411 36.3869 158.001 37.1818 156.515 37.9672C155.02 38.7527 153.487 39.4435 151.906 40.0587C150.326 40.6738 148.736 41.1659 147.118 41.535C145.509 41.904 143.957 42.0933 142.462 42.0933C141.922 42.0933 141.355 42.0365 140.758 41.9135C140.162 41.7905 139.632 41.6012 139.159 41.3268C138.686 41.0523 138.307 40.6738 138.042 40.1817C137.768 39.6896 137.673 39.0839 137.74 38.3742V38.3552Z" fill="#FFFEF4" stroke="#FFFEF4" stroke-width="0.946344" stroke-miterlimit="10"/>
<path d="M165.581 38.3553C164.966 39.0367 164.256 39.6234 163.442 40.1345C162.629 40.6455 161.777 40.901 160.897 40.901C160.111 40.901 159.562 40.6739 159.241 40.2102C158.919 39.7559 158.786 39.1503 158.862 38.4027C158.928 37.8916 159.089 37.3617 159.345 36.8033C159.6 36.245 159.941 35.715 160.367 35.2229C160.793 34.7308 161.256 34.3334 161.767 34.0306C162.278 33.7277 162.799 33.5763 163.348 33.5763C163.546 33.5763 163.83 33.6236 164.19 33.6993C164.55 33.7845 164.71 33.9643 164.673 34.2293C164.606 34.5321 164.417 34.6835 164.114 34.6835C163.944 34.6835 163.802 34.6457 163.679 34.5605C163.556 34.4753 163.414 34.4375 163.244 34.4375C162.837 34.4375 162.43 34.57 162.023 34.8444C161.616 35.1188 161.247 35.4501 160.925 35.8381C160.603 36.2261 160.338 36.6519 160.14 37.1062C159.941 37.5604 159.799 37.9768 159.733 38.3553C159.6 39.5477 160.121 40.1345 161.313 40.1345C161.994 40.1345 162.685 39.9357 163.405 39.5477C164.114 39.1597 164.71 38.7055 165.184 38.1945C164.398 37.6172 164.076 36.8412 164.218 35.857C164.285 35.2419 164.559 34.6457 165.032 34.0495C165.505 33.4533 166.083 33.1599 166.764 33.1599C167.133 33.1599 167.408 33.2829 167.578 33.5385C167.748 33.794 167.814 34.1063 167.777 34.4848C167.71 35.0621 167.483 35.6772 167.086 36.3207C166.698 36.9642 166.31 37.5226 165.941 37.9957C166.149 38.0336 166.348 38.062 166.556 38.0998C166.755 38.1377 166.944 38.1471 167.114 38.1471C167.729 38.1471 168.439 38.0525 169.253 37.8632C170.067 37.674 170.9 37.4469 171.751 37.1724C172.603 36.898 173.417 36.5951 174.193 36.2545C174.969 35.9138 175.631 35.5731 176.18 35.2324C176.351 35.0999 176.483 35.0242 176.587 35.0242C176.691 35.0242 176.72 35.0905 176.691 35.2324C176.691 35.2987 176.644 35.3554 176.568 35.4122C176.483 35.4595 176.407 35.5068 176.341 35.5352C175.66 35.8759 174.94 36.2261 174.174 36.5762C173.407 36.9358 172.631 37.267 171.836 37.5699C171.042 37.8727 170.237 38.1188 169.442 38.308C168.647 38.4973 167.89 38.5919 167.18 38.5919C166.565 38.5919 166.045 38.5068 165.6 38.3364L165.581 38.3553ZM166.849 33.775C166.613 33.775 166.376 33.8602 166.139 34.0306C165.903 34.2009 165.714 34.4091 165.581 34.6646C165.449 34.9201 165.326 35.1851 165.222 35.4501C165.117 35.7245 165.051 35.9611 165.013 36.1598C164.975 36.4343 164.994 36.7182 165.061 37.021C165.127 37.3238 165.278 37.5604 165.515 37.7308C165.685 37.5604 165.865 37.3238 166.045 37.021C166.234 36.7182 166.404 36.3964 166.584 36.0557C166.755 35.715 166.915 35.3838 167.067 35.0621C167.218 34.7403 167.294 34.4753 167.294 34.2766C167.332 34.1063 167.294 33.9832 167.19 33.8981C167.086 33.8129 166.972 33.775 166.83 33.775H166.849Z" fill="#FFFEF4" stroke="#FFFEF4" stroke-width="0.946344" stroke-miterlimit="10"/>
<path d="M197.161 40.9009C194.493 40.7211 193.073 39.2827 192.884 36.6045C192.884 34.8443 193.452 33.2923 194.597 31.9296C195.723 30.5858 197.057 29.3745 198.6 28.3051C198.155 26.9329 197.928 25.5796 197.928 24.2547C197.928 22.9299 198.278 21.7375 198.969 20.6303C199.669 19.523 200.578 18.6335 201.713 17.9805C202.849 17.3275 204.079 16.9868 205.404 16.949C207.675 17.0341 208.811 17.9142 208.811 19.5798C208.811 21.1224 208.11 22.5229 206.7 23.7816C205.129 25.1065 203.407 26.3746 201.552 27.5859C200.824 28.0874 200.104 28.5795 199.385 29.0811C200.578 32.346 202.29 34.9674 204.533 36.9641C206.625 35.0715 207.666 33.1693 207.666 31.2482C207.666 30.5479 207.42 29.8855 206.918 29.2325L206.89 29.1095C206.89 28.8918 206.984 28.7877 207.164 28.7877H207.211C207.344 28.7877 207.448 28.8256 207.533 28.9108C207.931 29.488 208.148 30.2735 208.177 31.2482C208.177 33.368 207.098 35.4027 204.95 37.3427C206.18 38.3742 207.401 38.8852 208.631 38.8852C208.849 38.8852 208.953 38.9799 208.953 39.1881C208.953 39.3016 208.924 39.3868 208.868 39.4341C208.811 39.4814 208.735 39.5098 208.631 39.5098C207.202 39.3773 205.839 38.7717 204.533 37.6928C203.606 38.554 202.48 39.3111 201.164 39.9546C199.849 40.5981 198.505 40.9199 197.152 40.9199L197.161 40.9009ZM197.161 40.3994C198.268 40.3994 199.461 40.106 200.738 39.5193C202.016 38.9325 203.152 38.1944 204.145 37.3238C201.921 35.3554 200.199 32.7056 198.978 29.3934C198.079 30.0085 197.256 30.6899 196.489 31.428C195.723 32.1756 195.127 32.9706 194.672 33.8223C194.218 34.674 194 35.6014 194 36.5951C194 37.636 194.265 38.5351 194.786 39.2827C195.306 40.0303 196.101 40.3994 197.161 40.3994ZM199.054 28.0023C199.697 27.5575 200.388 27.0938 201.117 26.6111C202.991 25.4188 204.637 24.2358 206.066 23.0529C207.325 21.993 207.959 20.829 207.959 19.5703C207.959 18.9742 207.704 18.4726 207.202 18.0657C206.7 17.6587 206.095 17.46 205.404 17.46C204.193 17.4979 203.066 17.8196 202.025 18.4253C200.984 19.0404 200.123 19.8543 199.461 20.8574C198.798 21.8605 198.467 22.9961 198.467 24.2358C198.467 25.4755 198.666 26.7152 199.063 27.9928L199.054 28.0023Z" fill="#FFFEF4" stroke="#FFFEF4" stroke-width="0.946344" stroke-miterlimit="10"/>
<path d="M180.334 56.7792C180.504 56.7792 180.618 56.8455 180.693 56.978C180.76 57.1105 180.797 57.2524 180.797 57.3849C180.731 57.8959 180.372 58.7571 179.728 59.9779C179.085 61.1987 178.242 62.6466 177.211 64.3027C176.179 65.9682 174.996 67.8041 173.671 69.8293C172.347 71.845 170.965 73.9175 169.526 76.0373C168.079 78.1571 166.631 80.2675 165.173 82.3778C163.716 84.4787 162.353 86.4471 161.104 88.283C159.845 90.1189 158.71 91.7561 157.697 93.1945C156.675 94.633 155.899 95.7686 155.36 96.5825C154.413 98.1061 153.486 99.6108 152.587 101.087C151.688 102.563 150.798 104.077 149.918 105.639C149.814 105.847 149.634 105.942 149.36 105.942C149.227 105.942 149.152 105.885 149.133 105.762C149.114 105.639 149.133 105.535 149.161 105.431C149.199 104.986 149.549 104.144 150.23 102.885C150.912 101.626 151.764 100.16 152.805 98.4846C153.836 96.8096 154.981 95.0021 156.24 93.0904C157.498 91.1694 158.71 89.324 159.883 87.5449C161.057 85.7657 162.135 84.157 163.12 82.7374C164.104 81.3085 164.833 80.2296 165.306 79.482C165.609 79.0372 166.176 78.2234 167.009 77.0405C167.842 75.8575 168.788 74.4664 169.858 72.8955C170.927 71.3151 172.063 69.659 173.264 67.9366C174.466 66.2048 175.564 64.6055 176.548 63.1292C177.532 61.6529 178.346 60.4037 178.99 59.3911C179.633 58.3691 179.974 57.7918 180.012 57.6593C180.012 57.5931 179.974 57.5552 179.908 57.5552C179.709 57.5552 179.208 57.8959 178.403 58.5773C177.608 59.2587 176.643 60.1104 175.526 61.1513C174.41 62.1829 173.198 63.3279 171.911 64.5866C170.624 65.8452 169.403 67.0471 168.249 68.2016C167.094 69.3561 166.072 70.3782 165.173 71.2772C164.274 72.1762 163.65 72.8008 163.318 73.1321C162.807 73.6715 161.956 74.561 160.744 75.8007C159.543 77.0405 158.17 78.441 156.647 80.0025C155.123 81.564 153.514 83.1728 151.839 84.8383C150.155 86.5039 148.565 88.018 147.051 89.3902C145.537 90.7624 144.202 91.8886 143.029 92.7782C141.855 93.6582 141.032 94.103 140.559 94.103C140.284 94.103 140.114 93.9895 140.048 93.7718C139.982 93.5542 139.963 93.3365 140.001 93.1378C140.067 92.428 140.398 91.4627 140.994 90.2609C141.59 89.059 142.262 87.8099 143.029 86.5228C143.795 85.2358 144.562 83.9866 145.347 82.7848C146.123 81.5829 146.72 80.6366 147.126 79.9552C147.401 79.5861 147.77 79.0278 148.243 78.2991C148.716 77.5704 149.246 76.7566 149.824 75.8575C150.401 74.9585 150.997 74.0216 151.603 73.0374C152.218 72.0532 152.767 71.1258 153.259 70.2646C153.751 69.4035 154.167 68.618 154.508 67.9272C154.849 67.2363 155.038 66.7348 155.066 66.4225C155.104 66.1859 155.019 66.0629 154.811 66.0629C154.366 66.0629 153.581 66.5644 152.445 67.5676C151.309 68.5707 149.947 69.905 148.376 71.5611C146.795 73.2267 145.045 75.1099 143.105 77.2108C141.174 79.3117 139.196 81.4599 137.171 83.6459C135.155 85.832 133.158 87.9802 131.19 90.0811C129.222 92.182 127.376 94.0652 125.663 95.7307C123.951 97.3963 122.446 98.7212 121.159 99.7243C119.872 100.727 118.888 101.229 118.206 101.229C117.932 101.229 117.771 101.144 117.724 100.973C117.676 100.803 117.667 100.614 117.695 100.415C117.761 99.8 118.055 98.9956 118.556 97.9925C119.067 96.9894 119.664 95.9389 120.364 94.8412C121.055 93.734 121.746 92.6835 122.427 91.6804C123.108 90.6773 123.648 89.8918 124.055 89.3145C123.004 88.9076 121.812 88.4155 120.496 87.8382C119.171 87.261 117.941 86.5512 116.806 85.6995C115.67 84.8478 114.752 83.8731 114.061 82.7753C113.361 81.6775 113.124 80.4094 113.323 78.9805C113.493 77.6272 114.194 76.1414 115.433 74.5232C116.673 72.9144 118.225 71.3056 120.089 69.7158C121.954 68.1164 124.036 66.5739 126.326 65.0881C128.616 63.5929 130.878 62.268 133.121 61.1135C135.363 59.959 137.464 59.0315 139.433 58.3407C141.401 57.6499 143.01 57.2997 144.269 57.2997C144.95 57.2997 145.461 57.4322 145.821 57.7067C146.18 57.9811 146.303 58.4732 146.199 59.183C146.133 59.8643 145.83 60.7066 145.309 61.7286C144.78 62.7507 144.145 63.839 143.398 65.0124C142.65 66.1859 141.808 67.4067 140.881 68.6748C139.944 69.9429 139.035 71.1731 138.155 72.3371C137.275 73.5106 136.433 74.5894 135.638 75.5736C134.843 76.5578 134.209 77.3528 133.726 77.9679C132.297 79.8038 130.887 81.6113 129.477 83.3904C128.067 85.1695 126.704 86.996 125.379 88.8603C125.616 88.9265 125.938 89.0212 126.345 89.1442C126.752 89.2672 127.178 89.3902 127.613 89.5227C128.058 89.6552 128.465 89.8066 128.834 89.958C129.203 90.1095 129.458 90.2514 129.6 90.3934C130.177 89.7782 131.143 88.7278 132.505 87.2326C133.859 85.7374 135.42 84.0529 137.19 82.1696C138.95 80.2864 140.824 78.3369 142.792 76.3118C144.761 74.2961 146.606 72.4412 148.338 70.7662C150.07 69.0912 151.593 67.7 152.918 66.6212C154.243 65.5329 155.142 64.9935 155.615 64.9935C155.89 64.9935 156.041 65.1165 156.069 65.372C156.107 65.6276 156.107 65.8357 156.069 66.0061C155.965 67.0565 155.521 68.3814 154.716 69.9807C153.912 71.5801 152.956 73.2929 151.839 75.1194C150.723 76.9553 149.511 78.8101 148.224 80.6933C146.937 82.5766 145.745 84.3462 144.657 85.9834C143.568 87.63 142.65 89.0685 141.912 90.3082C141.165 91.5479 140.758 92.4375 140.691 92.9769C140.653 93.1851 140.729 93.2797 140.89 93.2797C141.335 93.2797 142.187 92.7498 143.464 91.6993C144.732 90.6489 146.284 89.2767 148.092 87.5733C149.909 85.8793 151.896 83.9298 154.073 81.7438C156.24 79.5577 158.454 77.3149 160.688 75.0247C162.93 72.7346 165.135 70.4918 167.303 68.3057C169.47 66.1197 171.448 64.1702 173.236 62.4762C175.015 60.7823 176.539 59.4101 177.788 58.3502C179.047 57.2997 179.889 56.7698 180.334 56.7698V56.7792ZM144.344 57.7445C143.634 57.7445 142.745 57.9054 141.694 58.2271C140.644 58.5489 139.537 58.9653 138.382 59.4763C137.228 59.9873 136.035 60.5741 134.796 61.2365C133.556 61.899 132.364 62.5709 131.209 63.2428C130.054 63.9241 128.985 64.5771 128.001 65.2017C127.017 65.8263 126.184 66.3657 125.503 66.801C124.585 67.4161 123.544 68.1732 122.37 69.0912C121.197 70.0091 120.089 70.9933 119.039 72.0438C117.989 73.0942 117.071 74.2109 116.295 75.3749C115.509 76.5484 115.055 77.6934 114.922 78.8101C114.752 80.135 114.97 81.3085 115.585 82.3494C116.2 83.381 117.004 84.2989 118.007 85.0938C119.011 85.8888 120.099 86.5701 121.291 87.1285C122.484 87.6868 123.581 88.16 124.604 88.5291C125.957 86.6648 127.348 84.8099 128.748 82.9835C130.159 81.1476 131.569 79.3211 132.998 77.4852C133.471 76.8701 134.095 76.0846 134.881 75.1194C135.657 74.1541 136.49 73.0847 137.379 71.9113C138.259 70.7378 139.168 69.517 140.105 68.2489C141.041 66.9808 141.884 65.7506 142.65 64.5866C143.417 63.4131 144.051 62.3343 144.562 61.3501C145.073 60.3659 145.376 59.571 145.48 58.9558C145.518 58.4827 145.451 58.1609 145.3 57.9906C145.149 57.8202 144.836 57.735 144.354 57.735L144.344 57.7445ZM124.802 89.6079C124.499 90.0811 124.017 90.7908 123.354 91.7182C122.692 92.6551 122.029 93.6299 121.367 94.6424C120.705 95.655 120.108 96.6392 119.588 97.5667C119.058 98.5035 118.783 99.1849 118.746 99.6297C118.708 99.6959 118.708 99.7811 118.746 99.8852C118.783 99.9893 118.869 100.037 119.001 100.037C119.276 100.037 119.664 99.8473 120.175 99.4783C120.686 99.1092 121.272 98.6171 121.954 98.0304C122.635 97.4342 123.335 96.7812 124.064 96.0714C124.793 95.3617 125.493 94.6614 126.155 93.98C126.818 93.2986 127.405 92.6835 127.916 92.1252C128.427 91.5668 128.796 91.1694 129.032 90.9328C128.9 90.9328 128.635 90.876 128.247 90.753C127.859 90.63 127.443 90.4975 126.998 90.346C126.553 90.1946 126.137 90.0527 125.73 89.9107C125.323 89.7782 125.02 89.6741 124.812 89.6079H124.802Z" fill="#FFFEF4" stroke="#FFFEF4" stroke-width="0.946344" stroke-miterlimit="10"/>
<path d="M184.46 83.703C184.29 83.703 183.798 83.9869 182.984 84.5453C182.17 85.1036 181.224 85.7282 180.164 86.4001C179.095 87.0815 177.987 87.6966 176.852 88.2549C175.716 88.8133 174.741 89.0972 173.928 89.0972C173.417 89.0972 173.048 88.9458 172.811 88.6429C172.574 88.3401 172.489 87.9521 172.555 87.4695C172.66 86.6935 173.029 85.8891 173.672 85.0752C174.316 84.2614 175.082 83.5138 175.962 82.8324C176.842 82.151 177.77 81.6021 178.735 81.1763C179.7 80.7504 180.561 80.5422 181.309 80.5422C181.924 80.5422 182.473 80.6842 182.965 80.9776C183.457 81.2709 183.656 81.7819 183.552 82.5296C183.514 82.8702 183.363 83.0406 183.098 83.0406C182.833 83.0406 182.7 82.9365 182.719 82.7378C182.738 82.539 182.757 82.3119 182.766 82.0753C182.785 81.8387 182.729 81.6211 182.587 81.4129C182.454 81.2141 182.095 81.11 181.517 81.11C180.94 81.11 180.23 81.3277 179.379 81.7725C178.527 82.2173 177.694 82.7567 176.88 83.4002C176.066 84.0437 175.357 84.7345 174.77 85.4632C174.183 86.1919 173.842 86.8449 173.776 87.4222C173.672 88.0657 173.928 88.3874 174.543 88.3874C175.29 88.3874 176.208 88.0941 177.287 87.4979C178.375 86.9017 179.445 86.2582 180.495 85.5673C181.546 84.8765 182.511 84.2235 183.401 83.6368C184.281 83.0406 184.924 82.7472 185.331 82.7472C185.634 82.7472 185.833 82.8702 185.918 83.1068C186.003 83.3434 186.031 83.58 185.994 83.8166C185.927 84.1573 185.861 84.4885 185.785 84.8102C185.719 85.132 185.662 85.4632 185.634 85.8039C185.501 86.7219 185.587 87.4032 185.889 87.8669C186.192 88.3212 186.836 88.5578 187.82 88.5578C188.53 88.5578 189.344 88.4347 190.262 88.1792C191.179 87.9237 192.126 87.6114 193.11 87.2424C194.094 86.8733 195.059 86.4569 196.015 85.9932C196.962 85.5389 197.823 85.1225 198.589 84.744C199.356 84.3749 199.98 84.0532 200.473 83.7977C200.965 83.5421 201.23 83.4191 201.258 83.4191C201.391 83.4191 201.447 83.5043 201.409 83.6746C201.409 83.7409 201.305 83.8639 201.107 84.0342C200.321 84.5453 199.337 85.1036 198.154 85.7187C196.962 86.3339 195.712 86.8922 194.388 87.3938C193.063 87.9048 191.785 88.3401 190.545 88.6903C189.306 89.0499 188.246 89.2297 187.366 89.2297C186.419 89.2297 185.643 89.012 185.047 88.5672C184.451 88.1225 184.205 87.3938 184.309 86.3812C184.375 86.0121 184.451 85.6525 184.536 85.3118C184.621 84.9711 184.697 84.6115 184.763 84.2424C184.763 84.1762 184.744 84.0721 184.716 83.9396C184.678 83.8071 184.593 83.7314 184.46 83.7314V83.703Z" fill="#FFFEF4" stroke="#FFFEF4" stroke-width="0.946344" stroke-miterlimit="10"/>
<path d="M220.553 81.356C221.102 80.8734 222.436 79.6905 224.168 79.7283C224.566 79.7378 225.209 79.7662 225.654 80.2488C225.928 80.5422 226.07 80.968 226.07 81.5169C226.07 81.8008 225.947 81.9239 225.663 81.9239C225.465 81.9239 225.342 81.8008 225.218 81.6021C225.181 81.2803 224.935 81.1195 224.405 81.1195C223.231 81.1195 222.209 81.7251 221.282 82.9838C220.345 84.2424 219.862 85.4159 219.862 86.5136C219.862 87.3653 220.108 87.7723 220.638 87.7723C221.935 87.6871 224.045 85.378 226.969 80.8356C228.474 70.3217 231.796 60.4608 237.038 51.3286C237.237 50.9216 237.606 50.7229 238.098 50.7229C239.035 50.7229 239.48 51.3759 239.48 52.6345C239.48 55.3127 238.382 59.2873 236.196 64.5679C233.963 69.8864 231.445 74.9209 228.644 79.7094C227.991 83.0784 227.67 86.5704 227.67 90.1854C227.67 92.8636 227.83 95.6269 228.199 98.4281C228.199 98.6741 228.039 98.835 227.755 98.9107C227.433 98.9107 227.225 98.7877 227.187 98.5038C226.742 95.097 226.496 91.8037 226.496 88.6429C226.496 86.3338 226.581 84.337 226.78 82.7188C224.225 86.6556 222.19 88.605 220.648 88.605C219.786 88.4915 219.162 88.1981 218.755 87.6965C218.31 87.1477 218.282 86.5325 218.253 86.0404C218.197 85.1036 218.462 84.356 218.66 83.9301C219.285 82.6336 220.07 81.8198 220.572 81.375L220.553 81.356ZM235.647 63.5364C237.635 58.587 238.647 54.9341 238.647 52.6156C238.647 52.4169 238.335 52.8049 238.382 52.644C233.915 61.1232 231.057 68.8927 229.155 77.0975C231.464 73.0377 233.66 68.5331 235.647 63.5364Z" fill="#FFFEF4" stroke="#FFFEF4" stroke-width="0.709758" stroke-miterlimit="10"/>
<path d="M242.849 83.703C242.678 83.703 242.186 83.9869 241.373 84.5453C240.559 85.1036 239.612 85.7282 238.543 86.4001C237.474 87.0815 236.376 87.6966 235.231 88.2549C234.095 88.8133 233.12 89.0972 232.307 89.0972C231.796 89.0972 231.426 88.9458 231.19 88.6429C230.953 88.3401 230.868 87.9521 230.934 87.4695C231.038 86.6935 231.408 85.8891 232.051 85.0752C232.695 84.2614 233.461 83.5138 234.341 82.8324C235.221 82.151 236.149 81.6021 237.114 81.1763C238.079 80.7504 238.94 80.5422 239.688 80.5422C240.303 80.5422 240.852 80.6842 241.344 80.9776C241.836 81.2709 242.035 81.7819 241.931 82.5296C241.893 82.8702 241.742 83.0406 241.477 83.0406C241.212 83.0406 241.079 82.9365 241.098 82.7378C241.117 82.539 241.136 82.3119 241.145 82.0753C241.164 81.8387 241.098 81.6211 240.966 81.4129C240.833 81.2141 240.473 81.11 239.896 81.11C239.319 81.11 238.609 81.3277 237.757 81.7725C236.906 82.2173 236.082 82.7567 235.259 83.4002C234.445 84.0437 233.736 84.7345 233.149 85.4632C232.562 86.1919 232.221 86.8449 232.155 87.4222C232.051 88.0657 232.307 88.3874 232.922 88.3874C233.669 88.3874 234.587 88.0941 235.666 87.4979C236.754 86.9017 237.824 86.2582 238.874 85.5673C239.925 84.8765 240.89 84.2235 241.779 83.6368C242.66 83.0406 243.303 82.7472 243.71 82.7472C244.013 82.7472 244.212 82.8702 244.297 83.1068C244.382 83.3434 244.41 83.58 244.372 83.8166C244.306 84.1573 244.24 84.4885 244.174 84.8102C244.107 85.132 244.051 85.4632 244.022 85.8039C243.89 86.7219 243.975 87.4032 244.278 87.8669C244.581 88.3306 245.224 88.5578 246.208 88.5578C246.918 88.5578 247.732 88.4347 248.65 88.1792C249.568 87.9237 250.514 87.6114 251.498 87.2424C252.483 86.8733 253.448 86.4569 254.404 85.9932C255.35 85.5389 256.211 85.1225 256.978 84.744C257.744 84.3749 258.369 84.0532 258.861 83.7977C259.353 83.5421 259.618 83.4191 259.646 83.4191C259.779 83.4191 259.836 83.5043 259.798 83.6746C259.798 83.7409 259.694 83.8639 259.495 84.0342C258.71 84.5453 257.725 85.1036 256.542 85.7187C255.35 86.3339 254.101 86.8922 252.776 87.3938C251.451 87.8953 250.173 88.3401 248.934 88.6903C247.694 89.0499 246.634 89.2297 245.754 89.2297C244.808 89.2297 244.032 89.012 243.436 88.5672C242.839 88.1225 242.593 87.3938 242.697 86.3812C242.764 86.0121 242.839 85.6525 242.925 85.3118C243.01 84.9711 243.085 84.6115 243.152 84.2424C243.152 84.1762 243.133 84.0721 243.104 83.9396C243.066 83.8071 242.981 83.7314 242.849 83.7314V83.703Z" fill="#FFFEF4" stroke="#FFFEF4" stroke-width="0.946344" stroke-miterlimit="10"/>
<path d="M277.514 83.7029C277.514 83.807 277.41 83.9111 277.211 84.0057C276.265 84.6209 275.12 85.3117 273.804 86.0972C272.479 86.8826 271.126 87.6113 269.735 88.2832C268.344 88.9646 266.962 89.5418 265.59 90.015C264.218 90.4882 262.988 90.7248 261.899 90.7248C260.508 90.7248 259.552 90.3462 259.022 89.5797C258.492 88.8132 258.322 87.7722 258.483 86.4473C258.691 84.9899 259.231 83.296 260.111 81.3844C260.991 79.4633 262.117 77.4854 263.47 75.4319C264.824 73.3783 266.366 71.3626 268.079 69.3753C269.792 67.3879 271.561 65.6277 273.397 64.0852C275.233 62.5427 277.05 61.284 278.867 60.3188C280.684 59.3535 282.388 58.8708 283.987 58.8708C284.933 58.8708 285.747 59.0885 286.4 59.5333C287.063 59.9781 287.328 60.7351 287.186 61.8234C287.053 62.9401 286.429 64.2272 285.331 65.6656C284.224 67.1135 282.851 68.5803 281.205 70.0945C279.558 71.6086 277.732 73.1133 275.735 74.6275C273.729 76.1416 271.76 77.5327 269.801 78.8008C267.852 80.0689 266.035 81.1667 264.35 82.0847C262.675 83.0026 261.322 83.6461 260.3 84.0152C260.101 84.5262 259.931 85.0373 259.789 85.5388C259.656 86.0498 259.552 86.5609 259.486 87.0624C259.212 89.0971 260.026 90.1191 261.928 90.1191C262.779 90.1191 263.745 89.9582 264.833 89.6365C265.921 89.3147 267.019 88.9078 268.145 88.4157C269.262 87.9236 270.369 87.3936 271.457 86.8164C272.546 86.2391 273.52 85.7092 274.382 85.2171C275.243 84.725 275.943 84.318 276.473 83.9963C277.003 83.6745 277.277 83.5136 277.315 83.5136C277.448 83.5136 277.523 83.5799 277.523 83.7124L277.514 83.7029ZM286.315 62.2209C286.419 61.4449 286.211 60.8771 285.7 60.5364C285.189 60.1957 284.593 60.0254 283.921 60.0254C282.567 60.0254 281.11 60.4323 279.568 61.2462C278.025 62.06 276.473 63.1294 274.912 64.4543C273.35 65.7792 271.826 67.2838 270.331 68.9589C268.836 70.6339 267.454 72.3373 266.186 74.0502C264.918 75.7631 263.801 77.4192 262.855 79.009C261.909 80.6084 261.161 81.9995 260.612 83.1824C261.596 82.7755 262.893 82.1225 264.502 81.2235C266.111 80.3245 267.842 79.274 269.697 78.0627C271.543 76.8608 273.435 75.5549 275.375 74.1448C277.306 72.7348 279.057 71.3153 280.618 69.8958C282.179 68.4668 283.485 67.0946 284.536 65.7697C285.586 64.4448 286.182 63.2619 286.315 62.2114V62.2209Z" fill="#FFFEF4" stroke="#FFFEF4" stroke-width="0.946344" stroke-miterlimit="10"/>
<path d="M274.561 87.1666C274.694 86.1824 275.138 85.2834 275.886 84.4696C276.634 83.6557 277.504 82.9554 278.507 82.3781C279.51 81.8009 280.57 81.3561 281.687 81.0249C282.804 80.7031 283.788 80.5422 284.64 80.5422C284.848 80.5422 285.084 80.5612 285.349 80.5896C285.624 80.6274 285.879 80.6842 286.116 80.7694C286.352 80.8545 286.551 80.9776 286.703 81.1479C286.854 81.3182 286.901 81.5548 286.826 81.8577C286.788 82.3687 286.523 82.804 286.012 83.1825C285.501 83.5516 284.914 83.8639 284.252 84.1005C283.589 84.3371 282.927 84.5169 282.264 84.6399C281.602 84.7629 281.072 84.8197 280.665 84.8197C280.154 84.8197 279.633 84.744 279.113 84.5926C278.583 84.4412 278.271 84.091 278.176 83.5516C277.939 83.7503 277.665 83.9869 277.362 84.2424C277.059 84.498 276.766 84.7819 276.501 85.0847C276.227 85.3875 275.999 85.7093 275.81 86.05C275.621 86.3906 275.517 86.7313 275.479 87.072C275.413 87.4411 275.479 87.7534 275.659 87.99C275.848 88.2265 276.075 88.4064 276.35 88.5294C276.624 88.6524 276.917 88.7376 277.239 88.7849C277.561 88.8322 277.873 88.8606 278.186 88.8606C279.406 88.8606 280.712 88.7281 282.103 88.4537C283.495 88.1792 284.886 87.8385 286.277 87.4127C287.668 86.9868 289.04 86.5137 290.403 85.9837C291.756 85.4538 293.034 84.9427 294.217 84.4317C294.321 84.3939 294.482 84.3276 294.699 84.2235C294.917 84.1194 295.153 84.0248 295.39 83.9207C295.627 83.8166 295.844 83.722 296.052 83.6368C296.251 83.5516 296.374 83.5138 296.412 83.5138C296.516 83.5138 296.564 83.5611 296.564 83.6652C296.526 83.8355 296.242 84.0721 295.702 84.3749C295.163 84.6778 294.472 84.9995 293.639 85.3402C292.807 85.6809 291.879 86.0216 290.867 86.3623C289.844 86.7029 288.87 87.0152 287.942 87.3086C287.005 87.5925 286.173 87.848 285.425 88.0751C284.677 88.2928 284.166 88.4442 283.901 88.5105C282.917 88.747 281.943 88.9458 280.977 89.0972C280.012 89.2486 279.037 89.3243 278.053 89.3243C277.712 89.3243 277.324 89.3054 276.88 89.277C276.435 89.2391 276.047 89.154 275.706 88.9931C275.365 88.8417 275.091 88.624 274.864 88.3306C274.646 88.0467 274.552 87.6587 274.58 87.1856L274.561 87.1666ZM285.964 81.9239C286.002 81.7914 285.946 81.6778 285.813 81.5927C285.681 81.5075 285.52 81.4507 285.359 81.4129C285.188 81.3845 285.009 81.3656 284.819 81.3656H284.384C283.4 81.3656 282.435 81.5454 281.479 81.905C280.532 82.2646 279.624 82.681 278.782 83.1541C278.82 83.6273 278.99 83.9491 279.312 84.1194C279.633 84.2898 279.984 84.3749 280.353 84.3749C280.627 84.3749 281.053 84.3087 281.649 84.1667C282.245 84.0342 282.851 83.8544 283.485 83.6368C284.119 83.4191 284.677 83.1541 285.17 82.8513C285.662 82.5485 285.927 82.2362 285.955 81.9334L285.964 81.9239Z" fill="#FFFEF4" stroke="#FFFEF4" stroke-width="0.946344" stroke-miterlimit="10"/>
<path d="M294.766 89.2013C294.359 89.2013 294.122 89.0499 294.056 88.7471C293.99 88.4443 293.971 88.1225 294.009 87.7818C294.046 87.5831 294.132 87.2424 294.292 86.7598C294.444 86.2866 294.652 85.7945 294.908 85.2835C295.163 84.7724 295.419 84.3277 295.674 83.9302C295.93 83.5422 296.157 83.3435 296.365 83.3435C296.668 83.3435 296.81 83.476 296.772 83.7504C296.772 83.8166 296.668 84.0154 296.469 84.3371C296.261 84.6589 296.053 85.028 295.835 85.4349C295.617 85.8418 295.4 86.2677 295.201 86.703C295.002 87.1478 294.879 87.5358 294.841 87.8764C294.803 87.9805 294.803 88.1036 294.813 88.255C294.832 88.4064 294.927 88.4821 295.097 88.4821C295.267 88.4821 295.598 88.3023 296.091 87.9427C296.583 87.5831 297.16 87.1478 297.822 86.6178C298.485 86.0879 299.195 85.5201 299.961 84.9144C300.728 84.2993 301.475 83.7315 302.223 83.211C302.97 82.681 303.68 82.2457 304.362 81.8861C305.043 81.5265 305.62 81.3467 306.093 81.3467C306.567 81.3467 306.869 81.5076 306.983 81.8293C307.106 82.1511 307.144 82.5201 307.106 82.9271C307.002 83.7125 306.746 84.4696 306.339 85.2172C305.932 85.9648 305.696 86.7314 305.63 87.5074C305.526 88.2928 305.847 88.6808 306.595 88.6808C307.276 88.6808 308.052 88.5578 308.932 88.3023C309.813 88.0468 310.721 87.725 311.658 87.337C312.595 86.949 313.494 86.5421 314.383 86.1163C315.263 85.6904 316.011 85.3308 316.626 85.0185C316.692 84.9523 316.882 84.8387 317.185 84.6873C317.487 84.5359 317.8 84.375 318.121 84.2046C318.443 84.0343 318.746 83.8734 319.039 83.722C319.333 83.5706 319.494 83.4949 319.522 83.4949C319.692 83.4286 319.759 83.476 319.721 83.6463C319.683 83.7125 319.636 83.7693 319.569 83.8261C319.503 83.8734 319.437 83.9397 319.371 84.0059C318.661 84.4791 317.733 85.028 316.598 85.6336C315.462 86.2487 314.27 86.8165 313.04 87.337C311.8 87.867 310.588 88.3118 309.396 88.6903C308.204 89.0594 307.229 89.2486 306.444 89.2486C305.8 89.2486 305.298 89.0972 304.939 88.7944C304.579 88.4916 304.437 87.9995 304.503 87.3181C304.608 86.6367 304.806 85.9932 305.119 85.3876C305.421 84.7724 305.63 84.1289 305.734 83.457C305.734 83.2488 305.715 83.0217 305.686 82.7662C305.649 82.5107 305.497 82.3877 305.232 82.3877C304.929 82.3877 304.485 82.558 303.907 82.8987C303.33 83.2394 302.687 83.6652 301.977 84.1668C301.267 84.6778 300.529 85.2172 299.762 85.7945C298.996 86.3718 298.286 86.9112 297.624 87.4222C296.961 87.9332 296.365 88.3591 295.844 88.6903C295.315 89.031 294.974 89.2013 294.803 89.2013H294.766Z" fill="#FFFEF4" stroke="#FFFEF4" stroke-width="0.946344" stroke-miterlimit="10"/>
<path d="M328.512 83.703C328.342 83.703 327.849 83.9869 327.036 84.5453C326.222 85.1036 325.275 85.7282 324.206 86.4001C323.137 87.0815 322.029 87.6966 320.894 88.2549C319.758 88.8133 318.783 89.0972 317.97 89.0972C317.459 89.0972 317.09 88.9458 316.853 88.6429C316.616 88.3401 316.531 87.9521 316.597 87.4695C316.702 86.6935 317.071 85.8891 317.714 85.0752C318.358 84.2614 319.124 83.5138 320.004 82.8324C320.884 82.151 321.812 81.6021 322.777 81.1763C323.742 80.7504 324.603 80.5422 325.351 80.5422C325.966 80.5422 326.515 80.6842 327.007 80.9776C327.499 81.2709 327.698 81.7819 327.594 82.5296C327.556 82.8702 327.405 83.0406 327.14 83.0406C326.875 83.0406 326.742 82.9365 326.761 82.7378C326.78 82.539 326.79 82.3119 326.808 82.0753C326.827 81.8387 326.761 81.6211 326.629 81.4129C326.496 81.2141 326.137 81.11 325.559 81.11C324.982 81.11 324.272 81.3277 323.421 81.7725C322.569 82.2173 321.736 82.7567 320.922 83.4002C320.108 84.0437 319.399 84.7345 318.812 85.4632C318.225 86.1919 317.884 86.8449 317.818 87.4222C317.714 88.0657 317.97 88.3874 318.585 88.3874C319.332 88.3874 320.25 88.0941 321.329 87.4979C322.417 86.9017 323.487 86.2582 324.537 85.5673C325.588 84.8765 326.553 84.2235 327.443 83.6368C328.323 83.0406 328.966 82.7472 329.373 82.7472C329.676 82.7472 329.875 82.8702 329.96 83.1068C330.045 83.3434 330.073 83.58 330.036 83.8166C329.969 84.1573 329.903 84.4885 329.837 84.8102C329.771 85.132 329.714 85.4632 329.685 85.8039C329.553 86.7219 329.638 87.4032 329.941 87.8669C330.244 88.3212 330.887 88.5578 331.871 88.5578C332.581 88.5578 333.395 88.4347 334.313 88.1792C335.231 87.9237 336.177 87.6114 337.161 87.2424C338.146 86.8733 339.111 86.4569 340.067 85.9932C341.013 85.5389 341.874 85.1225 342.641 84.744C343.407 84.3749 344.032 84.0532 344.524 83.7977C345.016 83.5421 345.281 83.4191 345.31 83.4191C345.442 83.4191 345.499 83.5043 345.461 83.6746C345.461 83.7409 345.357 83.8639 345.158 84.0342C344.373 84.5453 343.388 85.1036 342.206 85.7187C341.013 86.3339 339.764 86.8922 338.439 87.3938C337.114 87.8953 335.837 88.3401 334.597 88.6903C333.357 89.0499 332.297 89.2297 331.417 89.2297C330.471 89.2297 329.695 89.012 329.099 88.5672C328.502 88.1225 328.256 87.3938 328.36 86.3812C328.427 86.0121 328.502 85.6525 328.588 85.3118C328.673 84.9711 328.748 84.6115 328.815 84.2424C328.815 84.1762 328.796 84.0721 328.767 83.9396C328.73 83.8071 328.644 83.7314 328.512 83.7314V83.703Z" fill="#FFFEF4" stroke="#FFFEF4" stroke-width="0.946344" stroke-miterlimit="10"/>
<path d="M202.932 81.3656C203.481 80.8829 204.815 79.7 206.547 79.7379C206.944 79.7473 207.588 79.7757 208.033 80.2583C208.307 80.5517 208.449 80.9776 208.449 81.5264C208.449 81.8103 208.326 81.9334 208.042 81.9334C207.843 81.9334 207.72 81.8103 207.597 81.6116C207.56 81.2899 207.314 81.129 206.784 81.129C205.61 81.129 204.588 81.7346 203.661 82.9933C202.724 84.2519 202.241 85.4254 202.241 86.5231C202.241 87.3749 202.487 87.7818 203.017 87.7818C204.314 87.6966 206.424 85.3875 209.348 80.8451C210.853 70.3312 214.174 60.4703 219.417 51.3381C219.616 50.9312 219.985 50.7324 220.477 50.7324C221.414 50.7324 221.859 51.3854 221.859 52.644C221.859 55.3222 220.761 59.2968 218.575 64.5774C216.342 69.8959 213.824 74.9304 211.023 79.7189C210.37 83.0879 209.698 85.1888 210.048 88.7849C210.294 91.3116 218.726 82.151 219.048 84.5547C219.077 84.7913 219.266 85.5957 218.991 85.6904C218.622 85.8228 218.537 85.4916 218.159 85.6147C217.004 86.0027 209.329 92.7595 208.856 89.7596C208.496 87.4789 208.96 84.3371 209.159 82.7188C206.604 86.6556 204.569 88.6051 203.027 88.6051C202.165 88.4915 201.541 88.1982 201.134 87.6966C200.689 87.1477 200.661 86.5326 200.632 86.0405C200.576 85.1036 200.841 84.356 201.039 83.9302C201.664 82.6337 202.449 81.8198 202.951 81.375L202.932 81.3656ZM218.017 63.5365C220.004 58.5871 221.017 54.9342 221.017 52.6156C221.017 52.4169 220.704 52.8049 220.752 52.644C216.285 61.1233 213.427 68.8928 211.525 77.0976C213.834 73.0377 216.029 68.5331 218.017 63.5365Z" fill="#FFFEF4" stroke="#FFFEF4" stroke-width="0.709758" stroke-miterlimit="10"/>
</svg>
